<svg id="visual" viewBox="0 0 900 600" width="900" height="600" xmlns="http://www.w3.org/2000/svg" xmlns:xlink="http://www.w3.org/1999/xlink" version="1.1"><rect x="0" y="0" width="900" height="600" fill="#001122"></rect><defs><linearGradient id="grad1_0" x1="33.3%" y1="0%" x2="100%" y2="100%"><stop offset="20%" stop-color="#ffffff" stop-opacity="1"></stop><stop offset="80%" stop-color="#ffffff" stop-opacity="1"></stop></linearGradient></defs><defs><linearGradient id="grad1_1" x1="33.3%" y1="0%" x2="100%" y2="100%"><stop offset="20%" stop-color="#ffffff" stop-opacity="1"></stop><stop offset="80%" stop-color="#d6d8dc" stop-opacity="1"></stop></linearGradient></defs><defs><linearGradient id="grad1_2" x1="33.3%" y1="0%" x2="100%" y2="100%"><stop offset="20%" stop-color="#afb3b9" stop-opacity="1"></stop><stop offset="80%" stop-color="#d6d8dc" stop-opacity="1"></stop></linearGradient></defs><defs><linearGradient id="grad1_3" x1="33.3%" y1="0%" x2="100%" y2="100%"><stop offset="20%" stop-color="#afb3b9" stop-opacity="1"></stop><stop offset="80%" stop-color="#898f98" stop-opacity="1"></stop></linearGradient></defs><defs><linearGradient id="grad1_4" x1="33.3%" y1="0%" x2="100%" y2="100%"><stop offset="20%" stop-color="#656c78" stop-opacity="1"></stop><stop offset="80%" stop-color="#898f98" stop-opacity="1"></stop></linearGradient></defs><defs><linearGradient id="grad1_5" x1="33.3%" y1="0%" x2="100%" y2="100%"><stop offset="20%" stop-color="#656c78" stop-opacity="1"></stop><stop offset="80%" stop-color="#434c5a" stop-opacity="1"></stop></linearGradient></defs><defs><linearGradient id="grad1_6" x1="33.3%" y1="0%" x2="100%" y2="100%"><stop offset="20%" stop-color="#222d3d" stop-opacity="1"></stop><stop offset="80%" stop-color="#434c5a" stop-opacity="1"></stop></linearGradient></defs><defs><linearGradient id="grad1_7" x1="33.3%" y1="0%" x2="100%" y2="100%"><stop offset="20%" stop-color="#222d3d" stop-opacity="1"></stop><stop offset="80%" stop-color="#001122" stop-opacity="1"></stop></linearGradient></defs><defs><linearGradient id="grad2_0" x1="0%" y1="0%" x2="66.7%" y2="100%"><stop offset="20%" stop-color="#ffffff" stop-opacity="1"></stop><stop offset="80%" stop-color="#ffffff" stop-opacity="1"></stop></linearGradient></defs><defs><linearGradient id="grad2_1" x1="0%" y1="0%" x2="66.7%" y2="100%"><stop offset="20%" stop-color="#d6d8dc" stop-opacity="1"></stop><stop offset="80%" stop-color="#ffffff" stop-opacity="1"></stop></linearGradient></defs><defs><linearGradient id="grad2_2" x1="0%" y1="0%" x2="66.7%" y2="100%"><stop offset="20%" stop-color="#d6d8dc" stop-opacity="1"></stop><stop offset="80%" stop-color="#afb3b9" stop-opacity="1"></stop></linearGradient></defs><defs><linearGradient id="grad2_3" x1="0%" y1="0%" x2="66.7%" y2="100%"><stop offset="20%" stop-color="#898f98" stop-opacity="1"></stop><stop offset="80%" stop-color="#afb3b9" stop-opacity="1"></stop></linearGradient></defs><defs><linearGradient id="grad2_4" x1="0%" y1="0%" x2="66.7%" y2="100%"><stop offset="20%" stop-color="#898f98" stop-opacity="1"></stop><stop offset="80%" stop-color="#656c78" stop-opacity="1"></stop></linearGradient></defs><defs><linearGradient id="grad2_5" x1="0%" y1="0%" x2="66.7%" y2="100%"><stop offset="20%" stop-color="#434c5a" stop-opacity="1"></stop><stop offset="80%" stop-color="#656c78" stop-opacity="1"></stop></linearGradient></defs><defs><linearGradient id="grad2_6" x1="0%" y1="0%" x2="66.7%" y2="100%"><stop offset="20%" stop-color="#434c5a" stop-opacity="1"></stop><stop offset="80%" stop-color="#222d3d" stop-opacity="1"></stop></linearGradient></defs><defs><linearGradient id="grad2_7" x1="0%" y1="0%" x2="66.7%" y2="100%"><stop offset="20%" stop-color="#001122" stop-opacity="1"></stop><stop offset="80%" stop-color="#222d3d" stop-opacity="1"></stop></linearGradient></defs><g transform="translate(900, 0)"><path d="M0 405.6C-70.5 394.8 -141.1 383.9 -202.8 351.3C-264.6 318.6 -317.5 264.2 -349.9 202C-382.2 139.8 -393.9 69.9 -405.6 0L0 0Z" fill="#121f2f"></path><path d="M0 354.9C-61.7 345.4 -123.4 335.9 -177.5 307.4C-231.5 278.8 -277.8 231.2 -306.1 176.8C-334.4 122.3 -344.7 61.2 -354.9 0L0 0Z" fill="#323c4b"></path><path d="M0 304.2C-52.9 296.1 -105.8 287.9 -152.1 263.5C-198.4 239 -238.2 198.1 -262.4 151.5C-286.7 104.9 -295.4 52.4 -304.2 0L0 0Z" fill="#545c69"></path><path d="M0 253.5C-44.1 246.7 -88.2 240 -126.8 219.6C-165.4 199.1 -198.5 165.1 -218.7 126.3C-238.9 87.4 -246.2 43.7 -253.5 0L0 0Z" fill="#777d88"></path><path d="M0 202.8C-35.3 197.4 -70.5 192 -101.4 175.6C-132.3 159.3 -158.8 132.1 -174.9 101C-191.1 69.9 -197 35 -202.8 0L0 0Z" fill="#9ca1a9"></path><path d="M0 152.1C-26.4 148 -52.9 144 -76.1 131.7C-99.2 119.5 -119.1 99.1 -131.2 75.8C-143.3 52.4 -147.7 26.2 -152.1 0L0 0Z" fill="#c3c5ca"></path><path d="M0 101.4C-17.6 98.7 -35.3 96 -50.7 87.8C-66.1 79.7 -79.4 66 -87.5 50.5C-95.6 35 -98.5 17.5 -101.4 0L0 0Z" fill="#ebebed"></path><path d="M0 50.7C-8.8 49.3 -17.6 48 -25.4 43.9C-33.1 39.8 -39.7 33 -43.7 25.3C-47.8 17.5 -49.2 8.7 -50.7 0L0 0Z" fill="#ffffff"></path></g><g transform="translate(0, 600)"><path d="M0 -405.6C67 -388.8 134 -372.1 196.5 -340.3C259 -308.6 317.2 -262 351.3 -202.8C385.4 -143.6 395.5 -71.8 405.6 0L0 0Z" fill="#121f2f"></path><path d="M0 -354.9C58.6 -340.2 117.2 -325.5 171.9 -297.8C226.7 -270.1 277.5 -229.3 307.4 -177.5C337.2 -125.7 346.1 -62.8 354.9 0L0 0Z" fill="#323c4b"></path><path d="M0 -304.2C50.2 -291.6 100.5 -279 147.4 -255.3C194.3 -231.5 237.9 -196.5 263.5 -152.1C289 -107.7 296.6 -53.9 304.2 0L0 0Z" fill="#545c69"></path><path d="M0 -253.5C41.9 -243 83.7 -232.5 122.8 -212.7C161.9 -192.9 198.2 -163.8 219.6 -126.8C240.9 -89.8 247.2 -44.9 253.5 0L0 0Z" fill="#777d88"></path><path d="M0 -202.8C33.5 -194.4 67 -186 98.2 -170.2C129.5 -154.3 158.6 -131 175.6 -101.4C192.7 -71.8 197.8 -35.9 202.8 0L0 0Z" fill="#9ca1a9"></path><path d="M0 -152.1C25.1 -145.8 50.2 -139.5 73.7 -127.6C97.1 -115.7 118.9 -98.3 131.7 -76.1C144.5 -53.9 148.3 -26.9 152.1 0L0 0Z" fill="#c3c5ca"></path><path d="M0 -101.4C16.7 -97.2 33.5 -93 49.1 -85.1C64.8 -77.2 79.3 -65.5 87.8 -50.7C96.3 -35.9 98.9 -18 101.4 0L0 0Z" fill="#ebebed"></path><path d="M0 -50.7C8.4 -48.6 16.7 -46.5 24.6 -42.5C32.4 -38.6 39.6 -32.8 43.9 -25.4C48.2 -18 49.4 -9 50.7 0L0 0Z" fill="#ffffff"></path></g></svg>